<svg xmlns="http://www.w3.org/2000/svg" width="491" height="50" viewBox="0 0 491 50" class="header-menu-container__scmp-logo-svg header-menu-container__scmp-logo-svg--transition" data-v-22ae94a0="" data-v-1de6e2e6=""><g fill="none" data-v-22ae94a0=""><path fill="#001246" d="M344.522 20.758l.007.223c0 1.717-1.026 2.891-2.822 2.891-1.266 0-2.215-.834-2.215-1.954 0-.38.116-.787.341-1.193-.916 0-2.983 1.489-2.983 2.966v12.033c0 .937.344 1.133 1.096 1.199l1.003.088v.456h-10.193v-.456l.855-.108c.846-.129 1.051-.222 1.051-1.24V23.134c0-1.745-.624-2.178-2.112-2.387v-.439l8.175-2.019v3.039c1.34-1.816 3.243-3.039 4.963-3.039 1.47 0 2.485.751 2.764 1.973l7.985-1.973v3.279c1.521-1.441 3.433-3.246 6.143-3.246 3.349 0 4.896 2.044 4.896 4.752v12.735c0 .92.36.995 1.032 1.093l.884.108v.456h-9.977v-.456l.951-.108c.624-.084.949-.222.949-1.02V23.524c0-1.208-.675-2.019-1.899-2.019-1.579 0-2.871 1.237-2.871 2.569v11.62c0 .998.309 1.11 1.003 1.208l.906.108v.456h-9.798v-.456l.884-.146c.482-.087.833-.098.833-1.055V23.285c0-1.666-.364-2.303-1.849-2.528zm-88.417 16.681h-9.968v-.454l.964-.121c.627-.075.932-.204.932-1.022V23.488c0-1.197-.662-2.02-1.896-2.02-1.566 0-2.855 1.23-2.855 2.571v11.624c0 1.017.303 1.111.987 1.201l.91.121v.454h-9.804v-.454l.89-.15c.482-.085.842-.112.842-1.053V23.253c0-1.754-.386-2.297-2.118-2.529v-.449l8.18-2.014v3.266c1.501-1.427 3.43-3.239 6.14-3.239 3.362 0 4.895 2.045 4.895 4.766V35.78c0 .92.367.992 1.019 1.082l.881.121v.454zm-23.08-23.618c0 1.764-1.412 3.163-3.327 3.163-1.922 0-3.301-1.399-3.301-3.163 0-1.768 1.379-3.188 3.301-3.188 1.916 0 3.327 1.42 3.327 3.188zm1.713 23.618h-9.936v-.454c.305-.063.906-.121.906-.121.656-.09.984-.184.984-1.054V23.286c0-1.758-.402-2.33-2.099-2.561v-.449l8.28-2.014v17.295c0 1.124.267 1.217 1.163 1.346l.701.082v.454zm-10.621 0h-9.959v-.454l1.022-.121c.604-.061.874-.33.874-1.054V23.582c0-1.465-.73-2.113-1.932-2.113-1.465 0-2.812 1.23-2.812 2.478v11.776c0 1 .321 1.051 1.019 1.141l.865.121v.454h-9.962v-.454l1.132-.15c.517-.061.755-.346.755-.85V14.533c0-2.165-.646-2.372-2.103-2.61v-.436l8.294-2.011v12.051c1.24-1.573 3.69-3.266 6.049-3.266 2.685 0 4.876 1.549 4.876 4.758v12.732c0 .998.331 1 1.077 1.112l.803.121v.454zm-21.649-4.309c-1.286 2.006-4.112 5.017-9.209 5.017-8.805 0-13.504-5.174-13.504-13.197 0-9.832 6.478-13.926 13.472-13.926 3.562 0 5.414 1.164 6.767 1.164.412 0 1.064-.124 1.575-.235l.083 6.36h-.82l-2.475-4.522c-1.038-.79-2.446-1.311-4.783-1.311-4.349 0-6.853 4.904-6.853 11.438 0 7.482 3.472 11.539 7.837 11.539 4.76 0 6.378-1.949 7.384-3.032l.527.705zm-28.246 4.309h-9.975v-.454l1.022-.121c.592-.061.884-.33.884-1.054V23.582c0-1.465-.752-2.113-1.942-2.113-1.443 0-2.822 1.23-2.822 2.478v11.776c0 1 .331 1.051 1.025 1.141l.871.121v.454h-9.975v-.454l1.148-.15c.514-.061.749-.346.749-.85V14.533c0-2.165-.637-2.372-2.096-2.61v-.436l8.278-2.011v12.051c1.257-1.573 3.7-3.266 6.059-3.266 2.687 0 4.86 1.549 4.86 4.758v12.732c0 .998.363 1 1.099 1.112l.813.121v.454zm-19.807-3.1c-1.013 1.766-3.231 3.522-6.755 3.522-3.38 0-4.957-2.294-4.957-4.619V20.454h-2.274v-.443l8.047-6.457h.466v5.38h4.639l-.537 1.52h-4.103v12.254c0 1.647.873 2.321 2.044 2.321 1.075 0 2.302-.713 3.122-1.375l.305.684zm-13.551 2.584l-7.99.732v-3.047c-1.294 1.497-3.725 3.282-6.186 3.282-3.184 0-4.822-2.08-4.822-4.789v-9.966c0-1.745-.59-2.246-2.099-2.41v-.449l8.276-2.014v13.931c0 1.428.551 2.247 1.932 2.247.906 0 1.244-.142 1.921-.58.784-.525.864-.95.864-1.908v-8.818c0-1.745-.575-2.178-2.094-2.41v-.449l8.279-2.014v16.722c0 1.28.995 1.383 1.919 1.505v.433zm-40.776-7.824c0 5.385-4.4 8.821-10.432 8.821-3.208 0-6.161-.875-7.798-2.055v-5.921h.729l2.231 4.934c1.336.863 2.739 1.611 5.043 1.611 3.193 0 4.928-2.076 4.928-4.483 0-2.152-1.625-3.841-5.565-5.062-4.917-1.533-7.646-3.744-7.646-7.954 0-4.554 4.576-7.943 9.647-7.943 3.172 0 5.476 1.347 6.125 1.347.281 0 .755-.061 1.016-.092v5.869h-.695l-2.453-4.394c-.762-.802-2.767-1.151-4.228-1.151-2.679 0-4.689 1.505-4.689 3.736 0 2.204 1.446 3.246 6.026 4.76 5.304 1.751 7.76 3.778 7.76 7.976zm166.538 3.438v-6.439c-1.749 2.067-4.513 2.203-4.513 6.439 0 1.574.736 2.632 2.048 2.632 1.337 0 2.465-1.497 2.465-2.632zm9.225 2.801c-.437.86-2.282 2.552-4.992 2.552s-3.677-1.453-3.996-3.128c-1.077 1.674-2.517 3.128-5.716 3.128-3.227 0-5.043-1.905-5.043-4.6 0-2.862 1.649-4.355 5.924-6.006 2.778-1.071 4.674-1.467 4.674-4.472 0-2.535-1.006-3.415-2.286-3.415-1.694 0-2.735 1.079-2.906 1.351.308.169 1.443.672 1.443 2.273 0 1.658-1.401 2.635-2.964 2.635-1.723 0-2.533-1.322-2.533-2.845 0-2.571 3.488-4.549 8.711-4.549 4.42 0 6.647 2.105 6.647 5.742v9.733c0 1.477.167 2.073 1.132 2.073.521 0 1.08-.353 1.578-.85l.324.378zm-162.307-7.203c0-6.636-.628-8.908-2.899-8.908-2.355 0-2.92 2.242-2.92 8.849 0 6.19.565 8.847 2.92 8.847 2.271 0 2.899-2.631 2.899-8.788zm6.336 0c0 5.763-4.122 9.755-9.235 9.755-5.158 0-9.279-4.012-9.279-9.815 0-5.758 4.163-9.813 9.279-9.813 5.113 0 9.235 4.063 9.235 9.873zm371.029 6.164c-1.015 1.75-3.214 3.591-6.734 3.591-3.385 0-4.96-2.298-4.96-4.612V20.492h-2.279v-.452l8.062-6.432h.454v5.358h4.641l-.533 1.526h-4.108v12.263c0 1.634.887 2.299 2.048 2.299 1.093 0 2.006-.677 2.922-1.349l.488.594zm-14.018-3.067c0 4.106-3.642 6.629-8.159 6.629-3.999 0-5.635-1.056-6.409-1.437V31.55h.449l2.138 4.085c.865.594 2.53 1.14 3.864 1.14 2.167 0 3.674-1.051 3.674-2.896 0-1.962-2.427-2.627-4.973-3.496-2.832-.957-5.339-2.5-5.339-5.789 0-3.989 3.536-6.304 7.531-6.304 3.401 0 4.857 1.262 5.767 1.032v4.696h-.414l-2.186-3.587c-.681-.52-1.903-1.034-3.15-1.034-2.54 0-3.729.869-3.729 2.434 0 1.718 2.392 2.402 4.985 3.326 3.276 1.165 5.95 2.399 5.95 6.075zm-79.77 6.235h-9.949v-.456l.952-.108c.62-.084.935-.222.935-1.02V23.525c0-1.208-.675-2.164-1.887-2.164-1.594 0-2.867 1.381-2.867 2.714v11.62c0 .998.305 1.11.98 1.208l.906.108v.456H376.4v-.456l.878-.146c.498-.087.842-.098.842-1.055V23.286c0-1.757-.383-2.305-2.089-2.538v-.439l8.155-2.019v3.279c1.517-1.441 3.437-3.246 6.136-3.246 3.375 0 4.906 2.044 4.906 4.752V35.81c0 .92.363.995 1.032 1.093l.862.108v.456zM374.07 13.86c0 1.75-1.408 3.147-3.33 3.147-1.916 0-3.289-1.397-3.289-3.147 0-1.76 1.373-3.179 3.289-3.179 1.922 0 3.33 1.42 3.33 3.179zm1.765 23.607h-9.932v-.456c.318-.053.903-.108.903-.108.663-.092 1.001-.18 1.001-1.061V23.325c0-1.763-.412-2.344-2.106-2.577v-.439l8.29-2.019v17.29c0 1.143.241 1.232 1.151 1.343l.694.088v.456zm-65.032 0h-12.254v-.456l1.433-.175c1.097-.134 1.351-.31 1.351-1.46v-.497l-.44-17.809h-.113l-7.464 20.609h-1.19l-7.22-20.491h-.096l-.241 16.091-.029 1.038c0 2.173.582 2.461 2.299 2.694v.456h-6.59v-.456c1.726-.33 2.588-1.104 2.655-3.713l.508-18.203.019-.687c0-1.09-.324-2.061-1.739-2.218 0 0-.708-.078-1.144-.115v-.468h9.148l5.484 16.408h.096l5.947-16.408h8.036v.468c-1.408.115-2.154.502-2.154 1.533l.042 1.511.707 20.166c.042 1.056.469 1.418 1.521 1.552l1.427.175v.456zm143.567-9.301c0-6.637-.63-8.896-2.903-8.896-2.356 0-2.915 2.242-2.915 8.828 0 6.201.56 8.854 2.915 8.854 2.273 0 2.903-2.635 2.903-8.786zm6.339 0c0 5.749-4.134 9.755-9.242 9.755-5.146 0-9.267-4.023-9.267-9.823 0-5.755 4.153-9.808 9.267-9.808 5.108 0 9.242 4.069 9.242 9.876zm-23.79-9.544c0-4.263-1.514-5.961-4.465-5.961-.717 0-1.28.092-1.723.193v12.047c.289.024.537.105 1.617.105 3.057 0 4.571-1.671 4.571-6.385zm6.676.08c0 4.728-4.484 7.36-10.373 7.36-.874 0-1.317.014-2.491-.066v9.407c0 .826.354 1.278 1.906 1.432l1.109.116v.515h-12.163v-.515l1.514-.177c.964-.108 1.299-.38 1.299-1.258V14.171c0-1.511-.849-1.862-2.812-2.096v-.468h10.553c7.438 0 11.459 1.703 11.459 7.095zm-32.443 23.361c0-1.371-1.115-1.785-4.112-2.394l-5.075-1.032c-.829.699-1.723 1.297-1.723 3.21 0 1.897 2.048 3.08 5.31 3.08 3.585 0 5.6-1.467 5.6-2.864zm-3.244-17.021c0-4.25-.662-5.771-2.24-5.771-1.694 0-2.208 1.521-2.208 5.771 0 4.192.514 5.596 2.208 5.596 1.578 0 2.24-1.404 2.24-5.596zm8.489-6.275l-1.144 2.317-3.112-.166c1.003.954 1.8 2.158 1.8 4.124 0 3.991-3.709 6.722-8.274 6.722-1.044 0-2.282-.147-3.14-.362-.17.297-.299.657-.299.963 0 .465.887.799 1.925.997l5.333 1.015c4.735.932 6.673 2.205 6.673 5.207 0 3.944-5.153 6.389-10.669 6.389-5.101 0-9.531-.906-9.531-3.732 0-2.394 2.584-3.327 4.725-3.939-1.71-.697-2.302-2.164-2.302-3.21 0-1.977 1.527-3.016 3.06-4.134-2.555-1.073-4.034-3.198-4.034-5.917 0-3.956 3.726-6.835 8.258-6.835 1.81 0 2.909.401 3.71.76l7.02-.2zm-94.364 9.399c0-6.637-.637-8.896-2.919-8.896-2.353 0-2.909 2.242-2.909 8.828 0 6.201.556 8.854 2.909 8.854 2.282 0 2.919-2.635 2.919-8.786zm6.323 0c0 5.749-4.13 9.755-9.241 9.755-5.143 0-9.268-4.023-9.268-9.823 0-5.755 4.153-9.808 9.268-9.808 5.111 0 9.241 4.069 9.241 9.876z" data-v-22ae94a0=""></path><path fill="#FEFEFE" d="M0 49.95h63.74V0H0z" data-v-22ae94a0=""></path><path fill="#FFCA05" d="M5.499 44.357h23.61V5.587H5.498z" data-v-22ae94a0=""></path><path fill="#001246" d="M34.632 44.357h23.61V5.587h-23.61z" data-v-22ae94a0=""></path></g></svg>